<?xml version="1.0" encoding="UTF-8"?>
<svg width="146px" height="146px" viewBox="0 0 146 146" version="1.1" xmlns="http://www.w3.org/2000/svg" xmlns:xlink="http://www.w3.org/1999/xlink">
    <!-- Generator: Sketch 48.2 (47327) - http://www.bohemiancoding.com/sketch -->
    <title>Group 4</title>
    <desc>Created with Sketch.</desc>
    <defs></defs>
    <g id="complement-/-sugar" stroke="none" stroke-width="1" fill="none" fill-rule="evenodd">
        <g id="Group-4">
            <g id="Group-3">
                <path d="M145,73.103 C145,113.143 112.541,145.603 72.5,145.603 C32.461,145.603 0,113.143 0,73.103 C0,33.062 32.461,0.603 72.5,0.603 C112.541,0.603 145,33.062 145,73.103" id="Fill-57" fill="#D4C766"></path>
                <path d="M145.046,73.053 C145.046,70.726 144.925,68.428 144.711,66.157 L43.306,33.55 L43.306,112.86 L110.873,134.586 C131.388,121.781 145.046,99.017 145.046,73.053" id="Fill-118" fill-opacity="0.553866621" fill="#636363" style="mix-blend-mode: hard-light;"></path>
            </g>
            <g id="sugar" transform="translate(28.000000, 24.000000)" fill-rule="nonzero">
                <g id="Group" transform="translate(8.000000, 0.000000)">
                    <path d="M24.0369467,0.456136461 L1.43727079,13.7289382 C0.546950959,14.2518721 0,15.2073006 0,16.2398465 L0,41.4449979 C0,42.4593433 0.528,43.4006994 1.39355224,43.9296375 L23.9568273,57.7182431 C24.8876759,58.2871471 26.0583198,58.2878977 26.989919,57.7204947 L50.9630704,43.1203753 C51.8308742,42.592 52.3603753,41.6493305 52.3603753,40.6332964 L52.3603753,16.2852537 C52.3603753,15.2283156 51.7877186,14.2544989 50.8641876,13.7405714 L26.9274371,0.422362473 C26.0260469,-0.0789936034 24.926516,-0.0662345416 24.0369467,0.456136461 Z" id="Shape" fill="#847929"></path>
                    <path d="M25.4753433,56.2049808 C25.2961535,56.2049808 25.1218422,56.1556333 24.9691087,56.0618166 L2.40545842,42.2728358 C2.11913006,42.0983369 1.9410661,41.7808614 1.9410661,41.4453731 L1.9410661,16.2396588 C1.9410661,15.8974158 2.1249467,15.5761876 2.42065672,15.4026269 L25.0193945,2.13020043 C25.1681876,2.04295096 25.3387463,1.99660554 25.512307,1.99660554 C25.6772367,1.99660554 25.84029,2.03826013 25.9834542,2.11894243 L49.9198294,15.4379019 C50.2279232,15.6084606 50.4193092,15.933629 50.4193092,16.2852537 L50.4193092,40.6338593 C50.4193092,40.9702857 50.2410576,41.2870107 49.9539787,41.4622601 L25.9806397,56.0627548 C25.8280938,56.1556333 25.6535949,56.2049808 25.4753433,56.2049808 Z" id="Shape" fill="#FFFFFF"></path>
                    <path d="M39.7889467,20.2595139 L28.6512239,26.8912239 C24.1448358,28.7619275 21.2541578,26.8912239 21.2541578,26.8912239 L9.01108742,20.2595139 L9.01108742,21.1098678 L19.7238209,27.5713945 C24.2300213,29.6119062 23.9750277,34.1438124 23.9750277,34.1438124 L23.9750277,45.681194 L25.3351812,45.681194 L25.3351812,35.0534584 C24.9951898,29.4420981 29.8413817,27.7226269 29.8413817,27.7226269 L40.2141237,21.1098678 L39.7889467,20.2595139 Z" id="Shape" fill="#847929"></path>
                </g>
                <g id="Group-2" transform="translate(43.000000, 25.000000)">
                    <path d="M24.5439147,1.36997868 L1.94423881,14.6427804 C1.05391898,15.1657143 0.506968017,16.1211429 0.506968017,17.1536887 L0.506968017,42.3588401 C0.506968017,43.3731855 1.03496802,44.3145416 1.90052026,44.8434797 L24.4637953,58.6320853 C25.3946439,59.2009893 26.5652878,59.2017399 27.496887,58.6343369 L51.4700384,44.0342175 C52.3378422,43.5056546 52.8673433,42.5631727 52.8673433,41.5471386 L52.8673433,17.1990959 C52.8673433,16.1421578 52.2946866,15.1683412 51.3711557,14.6544136 L27.4344051,1.33620469 C26.5330149,0.834848614 25.433484,0.847607676 24.5439147,1.36997868 Z" id="Shape" fill="#847929"></path>
                    <path d="M25.9824989,57.118823 C25.8033092,57.118823 25.6289979,57.0694755 25.4762644,56.9756588 L2.91261407,43.186678 C2.62628571,43.0121791 2.44822175,42.6947036 2.44822175,42.3592154 L2.44822175,17.1536887 C2.44822175,16.8114456 2.63210235,16.4902175 2.92781237,16.3166567 L25.5265501,3.04423028 C25.6753433,2.95698081 25.8459019,2.91063539 26.0194627,2.91063539 C26.1843923,2.91063539 26.3474456,2.95228998 26.4906098,3.03297228 L50.4269851,16.3519318 C50.7350789,16.5224904 50.9264648,16.8476588 50.9264648,17.1992836 L50.9264648,41.5478891 C50.9264648,41.8843156 50.7482132,42.2010405 50.4611343,42.37629 L26.4877953,56.9767846 C26.3350618,57.0694755 26.1605629,57.118823 25.9824989,57.118823 Z" id="Shape" fill="#FFFFFF"></path>
                    <path d="M40.2959147,21.1733561 L29.1581919,27.8050661 C24.6518038,29.6757697 21.7611258,27.8050661 21.7611258,27.8050661 L9.51805544,21.1733561 L9.51805544,22.02371 L20.2307889,28.4852367 C24.7369893,30.5257484 24.4819957,35.0576546 24.4819957,35.0576546 L24.4819957,46.5950362 L25.8421493,46.5950362 L25.8421493,35.9673006 C25.5021578,30.3559403 30.3483497,28.6364691 30.3483497,28.6364691 L40.7210917,22.02371 L40.2959147,21.1733561 Z" id="Shape" fill="#847929"></path>
                </g>
                <g id="Group-2-Copy" transform="translate(0.000000, 36.000000)">
                    <path d="M24.5439147,1.36997868 L1.94423881,14.6427804 C1.05391898,15.1657143 0.506968017,16.1211429 0.506968017,17.1536887 L0.506968017,42.3588401 C0.506968017,43.3731855 1.03496802,44.3145416 1.90052026,44.8434797 L24.4637953,58.6320853 C25.3946439,59.2009893 26.5652878,59.2017399 27.496887,58.6343369 L51.4700384,44.0342175 C52.3378422,43.5056546 52.8673433,42.5631727 52.8673433,41.5471386 L52.8673433,17.1990959 C52.8673433,16.1421578 52.2946866,15.1683412 51.3711557,14.6544136 L27.4344051,1.33620469 C26.5330149,0.834848614 25.433484,0.847607676 24.5439147,1.36997868 Z" id="Shape" fill="#847929"></path>
                    <path d="M25.9824989,57.118823 C25.8033092,57.118823 25.6289979,57.0694755 25.4762644,56.9756588 L2.91261407,43.186678 C2.62628571,43.0121791 2.44822175,42.6947036 2.44822175,42.3592154 L2.44822175,17.1536887 C2.44822175,16.8114456 2.63210235,16.4902175 2.92781237,16.3166567 L25.5265501,3.04423028 C25.6753433,2.95698081 25.8459019,2.91063539 26.0194627,2.91063539 C26.1843923,2.91063539 26.3474456,2.95228998 26.4906098,3.03297228 L50.4269851,16.3519318 C50.7350789,16.5224904 50.9264648,16.8476588 50.9264648,17.1992836 L50.9264648,41.5478891 C50.9264648,41.8843156 50.7482132,42.2010405 50.4611343,42.37629 L26.4877953,56.9767846 C26.3350618,57.0694755 26.1605629,57.118823 25.9824989,57.118823 Z" id="Shape" fill="#FFFFFF"></path>
                    <path d="M40.2959147,21.1733561 L29.1581919,27.8050661 C24.6518038,29.6757697 21.7611258,27.8050661 21.7611258,27.8050661 L9.51805544,21.1733561 L9.51805544,22.02371 L20.2307889,28.4852367 C24.7369893,30.5257484 24.4819957,35.0576546 24.4819957,35.0576546 L24.4819957,46.5950362 L25.8421493,46.5950362 L25.8421493,35.9673006 C25.5021578,30.3559403 30.3483497,28.6364691 30.3483497,28.6364691 L40.7210917,22.02371 L40.2959147,21.1733561 Z" id="Shape" fill="#847929"></path>
                </g>
            </g>
        </g>
    </g>
</svg>