<?xml version="1.0" encoding="UTF-8"?>
<svg width="146px" height="146px" viewBox="0 0 146 146" version="1.1" xmlns="http://www.w3.org/2000/svg" xmlns:xlink="http://www.w3.org/1999/xlink">
    <!-- Generator: Sketch 48.2 (47327) - http://www.bohemiancoding.com/sketch -->
    <title>Group 3</title>
    <desc>Created with Sketch.</desc>
    <defs></defs>
    <g id="complement-/-Leite" stroke="none" stroke-width="1" fill="none" fill-rule="evenodd">
        <g id="Group-3">
            <path d="M145,73.103 C145,113.143 112.541,145.603 72.5,145.603 C32.461,145.603 0,113.143 0,73.103 C0,33.062 32.461,0.603 72.5,0.603 C112.541,0.603 145,33.062 145,73.103" id="Fill-57" fill="#947356"></path>
            <path d="M145.046,73.053 C145.046,70.726 144.925,68.428 144.711,66.157 L43.306,33.55 L43.306,112.86 L110.873,134.586 C131.388,121.781 145.046,99.017 145.046,73.053" id="Fill-118" fill="#86694E"></path>
            <path d="M98.817,54.673 L100.333,54.539 C111.98,53.506 122.049,59.724 123.067,71.221 C124.086,82.719 115.27,90.61 103.621,91.643 L102.106,91.777" id="Stroke-119" stroke="#EA8A3B" stroke-width="8"></path>
            <path d="M103.542,38.599 C103.542,35.811 101.281,33.55 98.492,33.55 L36.853,33.55 C35.195,33.55 33.853,34.893 33.853,36.55 C33.853,40.171 44.133,43.303 43.439,50.158 C41.658,67.765 38.475,107.606 38.475,107.606 C38.475,110.395 40.734,112.655 43.524,112.655 L101.858,112.655 C104.647,112.655 106.908,110.395 106.908,107.606 L103.542,38.599" id="Fill-120" fill="#F0A44D"></path>
            <path d="M100.639,65.441 C100.639,63.849 99.347,62.558 97.754,62.558 L49.371,62.558 C47.779,62.558 46.488,63.849 46.488,65.441 L43.604,104.372 C43.604,105.964 44.896,107.255 46.488,107.255 L98.716,107.255 C100.309,107.255 101.6,105.964 101.6,104.372 L100.639,65.441" id="Fill-121" fill="#FFFFFE"></path>
            <path d="M103.542,38.599 C103.542,35.811 101.281,33.55 98.492,33.55 L72.436,33.55 L72.436,62.558 L97.754,62.558 C99.347,62.558 100.639,63.849 100.639,65.441 L101.6,104.372 C101.6,105.964 100.309,107.255 98.716,107.255 L72.436,107.255 L72.436,112.655 L101.858,112.655 C104.647,112.655 106.908,110.395 106.908,107.606 L103.542,38.599" id="Fill-122" fill="#EA8A3B"></path>
            <path d="M98.716,107.255 C100.309,107.255 101.6,105.964 101.6,104.372 L100.639,65.441 C100.639,63.849 99.347,62.558 97.754,62.558 L72.436,62.558 L72.436,107.255 L98.716,107.255" id="Fill-123" fill="#EDEDEA"></path>
        </g>
    </g>
</svg>