<svg xmlns="http://www.w3.org/2000/svg" width="24" height="24" viewBox="0 0 24 24">
    <g fill="none" fill-rule="nonzero">
        <path fill="#000" d="M4.636 10.455C5.341 6.498 8.706 3.5 12.75 3.5 17.306 3.5 21 7.306 21 12s-3.694 8.5-8.25 8.5c-3.205 0-5.982-1.882-7.348-4.633h.853c1.298 2.308 3.72 3.86 6.495 3.86 4.142 0 7.5-3.46 7.5-7.727 0-4.268-3.358-7.727-7.5-7.727-3.629 0-6.655 2.654-7.35 6.182h-.764zm7.739 1.815l3.908 2.374.38-.666-3.538-2.168V6.615h-.75v5.655zm-7.5.503l1.875-2.318H3l1.875 2.318z"/>
        <path fill="#887A6A" d="M4.636 10.455C5.341 6.498 8.706 3.5 12.75 3.5 17.306 3.5 21 7.306 21 12s-3.694 8.5-8.25 8.5c-3.205 0-5.982-1.882-7.348-4.633h.853c1.298 2.308 3.72 3.86 6.495 3.86 4.142 0 7.5-3.46 7.5-7.727 0-4.268-3.358-7.727-7.5-7.727-3.629 0-6.655 2.654-7.35 6.182h-.764zm7.739 1.815l3.908 2.374.38-.666-3.538-2.168V6.615h-.75v5.655zm-7.5.503l1.875-2.318H3l1.875 2.318z"/>
    </g>
</svg>
