<?xml version="1.0" encoding="UTF-8"?>
<svg width="146px" height="146px" viewBox="0 0 146 146" version="1.1" xmlns="http://www.w3.org/2000/svg" xmlns:xlink="http://www.w3.org/1999/xlink">
    <!-- Generator: Sketch 48.2 (47327) - http://www.bohemiancoding.com/sketch -->
    <title>Group 2</title>
    <desc>Created with Sketch.</desc>
    <defs></defs>
    <g id="icon-/-mocatino" stroke="none" stroke-width="1" fill="none" fill-rule="evenodd">
        <g id="Group-2">
            <path d="M145,73.103 C145,113.143 112.541,145.603 72.5,145.603 C32.461,145.603 0,113.143 0,73.103 C0,33.063 32.461,0.603 72.5,0.603 C112.541,0.603 145,33.063 145,73.103" id="Fill-45" fill="#E15C37"></path>
            <path d="M145.025,73.086 C145.025,64.055 143.36,55.416 140.344,47.441 L78.468,27.545 L58.183,127.395 L99.079,140.545 C125.979,129.947 145.025,103.75 145.025,73.086" id="Fill-51" fill="#D95833"></path>
            <path d="M34.675,30.173 L46.903,23.191 C50.581,22.07 54.474,24.145 55.594,27.823 L63.895,55.077" id="Stroke-110" stroke="#FFFFFE" stroke-width="4.352" stroke-linecap="round"></path>
            <polyline id="Fill-111" fill="#FFFFFE" points="58.153 127.317 93.464 127.317 100.115 56.479 51.478 56.479 58.153 127.317"></polyline>
            <polyline id="Fill-112" fill="#EDEDEA" points="75.809 127.317 93.464 127.317 100.115 56.479 75.809 56.479 75.809 127.317"></polyline>
            <polyline id="Fill-113" fill="#4A321C" points="61.782 121.117 89.829 121.117 95.547 56.774 56.047 56.774 61.782 121.117"></polyline>
            <polyline id="Fill-114" fill="#2B1B0F" points="89.829 121.117 95.547 56.955 75.806 56.955 75.806 121.117 89.829 121.117"></polyline>
            <path d="M100.349,53.917 C99.476,49.086 98.738,35.521 76.183,35.521 C53.984,35.521 51.202,49.421 51.202,54.557 C51.202,54.892 48.362,54.315 48.362,57.217 C48.362,58.179 49.655,58.961 51.256,58.961 C52.073,58.961 52.606,58.868 53.132,58.54 C53.539,59.615 55.33,60.305 57.239,60.305 C59.049,60.305 60.575,59.583 61.073,58.592 C61.781,58.972 62.713,59.204 63.733,59.204 C64.903,59.204 66.31,58.92 67.043,58.44 C67.162,58.446 66.921,58.435 67.043,58.44 C67.149,59.346 68.394,60.061 69.921,60.061 C71.23,60.061 72.337,59.536 72.692,58.816 C73.191,59.34 74.126,59.693 75.199,59.693 C76.101,59.693 76.905,59.444 77.435,59.055 C77.962,59.844 79.243,60.403 80.742,60.403 C82.595,60.403 84.112,59.547 84.281,58.458 C84.32,58.455 84.361,58.453 84.403,58.45 C85.006,59.322 86.421,59.938 88.087,59.938 C90.175,59.938 91.888,58.974 92.075,57.744 C92.18,57.729 92.281,57.715 92.382,57.701 C93.01,59.128 95.157,60.182 97.724,60.182 C100.779,60.182 103.254,58.689 103.254,56.849 C103.254,55.582 102.076,54.479 100.349,53.917" id="Fill-115" fill="#B38F6C"></path>
            <path d="M100.349,53.917 C99.476,49.086 98.738,35.521 76.183,35.521 C76.054,35.521 75.936,35.53 75.809,35.53 L75.809,59.651 C76.457,59.565 77.027,59.354 77.435,59.055 C77.962,59.844 79.243,60.403 80.742,60.403 C82.595,60.403 84.112,59.547 84.281,58.458 C84.32,58.455 84.238,58.459 84.281,58.458 C84.885,59.329 86.421,59.938 88.087,59.938 C90.175,59.938 92.198,58.932 92.382,57.701 C92.489,57.686 92.281,57.715 92.382,57.701 C93.01,59.128 95.157,60.182 97.724,60.182 C100.779,60.182 103.254,58.689 103.254,56.849 C103.254,55.582 102.076,54.479 100.349,53.917" id="Fill-116" fill="#947356"></path>
            <path d="M82.217,33.411 C82.217,36.949 79.348,39.818 75.809,39.818 C72.271,39.818 69.402,36.949 69.402,33.411 C69.402,29.871 72.271,27.002 75.809,27.002 C79.348,27.002 82.217,29.871 82.217,33.411" id="Fill-117" fill="#F0A44D"></path>
        </g>
    </g>
</svg>