<?xml version="1.0" encoding="UTF-8"?>
<svg width="145px" height="146px" viewBox="0 0 145 146" version="1.1" xmlns="http://www.w3.org/2000/svg" xmlns:xlink="http://www.w3.org/1999/xlink">
    <!-- Generator: Sketch 48.2 (47327) - http://www.bohemiancoding.com/sketch -->
    <title>Group 12</title>
    <desc>Created with Sketch.</desc>
    <defs></defs>
    <g id="icon-/-cappuccino" stroke="none" stroke-width="1" fill="none" fill-rule="evenodd">
        <g id="Group-12">
            <path d="M145,73.103 C145,113.143 112.542,145.603 72.5,145.603 C32.46,145.603 0.001,113.143 0.001,73.103 C0.001,33.062 32.46,0.603 72.5,0.603 C112.542,0.603 145,33.062 145,73.103" id="Fill-53" fill="#B38F6C"></path>
            <path d="M145.004,72.974 C145.004,68.578 144.591,64.28 143.842,60.1 L85.664,39.414 L53.504,96.464 L43.004,102.857 L116.898,130.272 C133.992,117.009 145.004,96.283 145.004,72.974" id="Fill-131" fill="#A58665"></path>
            <path d="M109.583,62.376 C109.583,50.719 99.737,42.927 75.987,36.386 C74.193,35.892 67.154,34.052 67.154,36.737 C67.154,38.237 69.321,39.362 69.321,41.737 C69.321,53.172 35.418,45.052 35.418,62.376 C35.418,62.907 35.436,63.433 35.458,63.958 L109.543,63.958 C109.565,63.433 109.583,62.907 109.583,62.376" id="Fill-145" fill="#FFFFFE"></path>
            <path d="M72.5,100.561 C93.948,100.561 111.333,83.174 111.333,61.728 L33.668,61.728 C33.668,83.174 51.053,100.561 72.5,100.561" id="Fill-146" fill="#EA8A3B"></path>
            <path d="M72.5,61.728 L72.5,100.561 C93.948,100.561 111.333,83.174 111.333,61.728 L72.5,61.728" id="Fill-147" fill="#E15C37"></path>
            <path d="M107.691,67.202 L108.446,67.43 C114.258,69.175 118.165,73.267 116.42,79.078 C114.674,84.891 109.156,86.15 103.346,84.406 L102.589,84.178" id="Stroke-148" stroke="#E15C37" stroke-width="5.602"></path>
            <path d="M116.667,94.727 L28.334,94.727 C27.321,94.727 26.501,95.548 26.501,96.561 C26.501,97.572 27.321,98.394 28.334,98.394 L36.876,98.394 C38.381,99.786 41.88,102.894 43.168,102.894 L101.833,102.894 C103.121,102.894 106.62,99.786 108.125,98.394 L116.667,98.394 C117.68,98.394 118.5,97.572 118.5,96.561 C118.5,95.548 117.68,94.727 116.667,94.727" id="Fill-149" fill="#5C5E5E"></path>
            <path d="M116.667,94.727 L72.5,94.727 L72.5,102.894 L101.833,102.894 C103.121,102.894 106.62,99.786 108.125,98.394 L116.667,98.394 C117.68,98.394 118.5,97.572 118.5,96.561 C118.5,95.548 117.68,94.727 116.667,94.727" id="Fill-150" fill="#434544"></path>
        </g>
    </g>
</svg>