<?xml version="1.0" encoding="UTF-8"?>
<svg width="145px" height="146px" viewBox="0 0 145 146" version="1.1" xmlns="http://www.w3.org/2000/svg" xmlns:xlink="http://www.w3.org/1999/xlink">
    <!-- Generator: Sketch 48.2 (47327) - http://www.bohemiancoding.com/sketch -->
    <title>Group</title>
    <desc>Created with Sketch.</desc>
    <defs></defs>
    <g id="icon-/-coffee" stroke="none" stroke-width="1" fill="none" fill-rule="evenodd">
        <g id="Group">
            <path d="M145,73.103 C145,113.143 112.541,145.603 72.5,145.603 C32.461,145.603 0,113.143 0,73.103 C0,33.063 32.461,0.603 72.5,0.603 C112.541,0.603 145,33.063 145,73.103" id="Fill-38" fill="#5E4429"></path>
            <path d="M144.257,83.183 L95.481,66.064 L45.552,112.534 L109.989,135.149 C128.229,124.096 141.189,105.223 144.257,83.183" id="Fill-39" fill="#503A23"></path>
            <path d="M96.177,102.207 C96.177,104.945 93.956,107.166 91.219,107.166 L53.781,107.166 C51.044,107.166 48.825,104.945 48.825,102.207 L45.521,70.986 C45.521,68.248 47.737,66.027 50.479,66.027 L94.524,66.027 C97.26,66.027 99.481,68.248 99.481,70.986 L96.177,102.207" id="Fill-73" fill="#FFFFFE"></path>
            <path d="M94.524,66.027 L72.5,66.027 L72.5,107.166 L91.219,107.166 C93.956,107.166 96.177,104.945 96.177,102.207 L99.481,70.986 C99.481,68.248 97.26,66.027 94.524,66.027" id="Fill-74" fill="#EDEDEA"></path>
            <path d="M113.178,105.869 L31.822,105.871 C30.516,105.871 29.459,106.93 29.459,108.234 C29.459,111.99 42.337,112.531 46.517,112.531 C51.185,112.531 93.976,112.529 98.483,112.529 C102.663,112.529 115.541,111.99 115.541,108.232 C115.541,106.93 114.484,105.869 113.178,105.869" id="Fill-75" fill="#EA8A3B"></path>
            <path d="M113.176,105.869 L72.5,105.871 L72.5,112.531 C88.847,112.529 96.225,112.529 98.483,112.529 C102.663,112.529 115.541,111.99 115.541,108.232 C115.541,106.93 114.481,105.869 113.176,105.869" id="Fill-76" fill="#E15C37"></path>
            <path d="M97.722,74.51 L98.508,74.572 C104.558,75.047 109.243,78.219 108.769,84.268 C108.293,90.318 103.168,92.719 97.12,92.244 L96.332,92.182" id="Stroke-77" stroke="#EDEDEA" stroke-width="5.602"></path>
            <path d="M66.035,25.674 C69.854,29.643 69.854,37.58 66.035,41.549 C62.216,45.516 62.216,53.453 66.035,57.42 M78.967,25.674 C82.785,29.643 82.785,37.58 78.967,41.549 C75.147,45.516 75.147,53.453 78.967,57.42" id="Stroke-78" stroke="#FFFFFE" stroke-width="3.361" stroke-linecap="round" stroke-linejoin="round"></path>
        </g>
    </g>
</svg>