<?xml version="1.0" encoding="UTF-8"?>
<svg width="145px" height="146px" viewBox="0 0 145 146" version="1.1" xmlns="http://www.w3.org/2000/svg" xmlns:xlink="http://www.w3.org/1999/xlink">
    <!-- Generator: Sketch 48.2 (47327) - http://www.bohemiancoding.com/sketch -->
    <title>Group 14</title>
    <desc>Created with Sketch.</desc>
    <defs></defs>
    <g id="icon-/-donuts" stroke="none" stroke-width="1" fill="none" fill-rule="evenodd">
        <g id="Group-14">
            <path d="M145,73.103 C145,113.143 112.541,145.603 72.5,145.603 C32.46,145.603 0,113.143 0,73.103 C0,33.062 32.46,0.602 72.5,0.602 C112.541,0.602 145,33.062 145,73.103" id="Fill-36" fill="#5E4429"></path>
            <path d="M144.994,73.107 C144.994,67.062 144.242,61.193 142.848,55.579 L89.565,36.878 L56.687,40.337 L56.687,109.887 L116.352,130.827 C133.753,117.584 144.994,96.662 144.994,73.107" id="Fill-166" fill="#503A23"></path>
            <path d="M72.5,87.031 C64.807,87.031 58.571,80.795 58.571,73.103 C58.571,65.41 64.807,59.174 72.5,59.174 C80.192,59.174 86.428,65.41 86.428,73.103 C86.428,80.795 80.192,87.031 72.5,87.031 Z M72.5,33.102 C50.409,33.102 32.501,51.012 32.501,73.102 C32.501,95.194 50.409,113.103 72.5,113.103 C94.592,113.103 112.5,95.194 112.5,73.102 C112.5,51.012 94.592,33.102 72.5,33.102 Z" id="Fill-167" fill="#B38F6C"></path>
            <path d="M72.5,87.031 C64.807,87.031 58.571,80.795 58.571,73.103 C58.571,65.41 64.807,59.174 72.5,59.174 C80.192,59.174 86.428,65.41 86.428,73.103 C86.428,80.795 80.192,87.031 72.5,87.031 Z M107.11,79.308 C107.11,76.001 104.469,75.246 103.723,72.08 C103.424,70.81 103.977,68.254 103.977,66.897 C103.977,62.042 98.467,61.333 98.193,56.333 C98.083,54.324 99.157,52.965 99.157,50.87 C99.157,47.676 96.459,45.086 93.132,45.086 C91.37,45.086 88.77,45.067 87.188,44.845 C82.446,44.181 81.638,39.784 76.021,39.784 C71.421,39.784 68.485,43.714 65.417,43.881 C64.21,43.947 61.763,42.778 59.513,43.1 C56.01,43.6 53.599,46.917 53.277,49.89 C52.557,56.554 47.834,55.09 45.173,55.329 C42.04,55.61 39.148,57.919 39.148,61.113 C39.148,64.929 37.24,64.631 38.123,68.809 C38.474,70.468 40.537,72.115 41.494,74.399 C42.141,75.943 40.755,78.528 40.755,80.273 C40.755,84.277 44.841,85.236 45.815,89.134 C46.027,89.987 45.735,97.424 50.716,98.91 C54.688,100.095 58.813,106.421 65.176,106.421 C67.197,106.421 70.637,105.079 71.924,104.895 C73.611,104.654 76.319,105.219 77.382,105.62 C78.545,106.058 80.559,106.421 82.287,106.421 C89.176,106.421 89.679,98.106 95.381,97.544 C98.532,97.233 103.856,96.913 103.254,89.591 C102.772,83.727 107.11,83.146 107.11,79.308 Z" id="Fill-168" fill="#EA8A3B"></path>
            <path d="M72.5,33.102 L72.5,40.55 C72.75,40.444 73.005,40.349 73.266,40.261 C73.295,40.251 73.324,40.241 73.354,40.231 C73.583,40.156 73.817,40.09 74.055,40.033 C74.112,40.019 74.168,40.003 74.226,39.99 C74.447,39.94 74.673,39.903 74.903,39.871 C74.973,39.861 75.042,39.847 75.114,39.838 C75.409,39.805 75.711,39.784 76.021,39.784 C81.638,39.784 82.446,44.181 87.188,44.845 C88.77,45.067 91.37,45.086 93.132,45.086 C96.459,45.086 99.157,47.676 99.157,50.87 C99.157,52.965 98.083,54.324 98.193,56.333 C98.467,61.333 103.977,62.042 103.977,66.897 C103.977,68.254 103.424,70.81 103.723,72.08 C104.469,75.246 107.11,76.001 107.11,79.308 C107.11,83.146 102.772,83.727 103.254,89.591 C103.856,96.913 98.532,97.233 95.381,97.544 C89.679,98.106 89.176,106.421 82.287,106.421 C80.559,106.421 78.545,106.058 77.382,105.62 C77.257,105.573 77.106,105.523 76.939,105.473 C76.873,105.453 76.794,105.433 76.722,105.413 C76.617,105.383 76.511,105.354 76.396,105.325 C76.291,105.298 76.177,105.273 76.064,105.247 C75.972,105.226 75.879,105.205 75.782,105.184 C75.645,105.155 75.504,105.128 75.361,105.102 C75.28,105.087 75.2,105.072 75.118,105.058 C74.958,105.031 74.796,105.005 74.633,104.982 C74.564,104.973 74.496,104.964 74.426,104.955 C74.251,104.932 74.074,104.912 73.898,104.895 C73.843,104.89 73.788,104.887 73.733,104.882 C73.547,104.867 73.363,104.854 73.182,104.848 C73.141,104.847 73.103,104.847 73.062,104.847 C72.871,104.842 72.681,104.841 72.502,104.848 C72.501,104.848 72.501,104.848 72.5,104.848 L72.5,113.103 C94.592,113.103 112.5,95.194 112.5,73.102 C112.5,51.012 94.592,33.102 72.5,33.102" id="Fill-169" fill="#947356"></path>
            <path d="M86.428,73.103 C86.428,80.795 80.192,87.031 72.5,87.031 L72.5,104.848 C72.501,104.848 72.501,104.848 72.502,104.848 C72.681,104.841 72.871,104.842 73.062,104.847 C73.103,104.847 73.141,104.847 73.182,104.848 C73.363,104.854 73.547,104.867 73.733,104.882 C73.788,104.887 73.843,104.89 73.898,104.895 C74.074,104.912 74.251,104.932 74.426,104.955 C74.496,104.964 74.564,104.973 74.633,104.982 C74.796,105.005 74.958,105.031 75.118,105.058 C75.2,105.072 75.28,105.087 75.361,105.102 C75.504,105.128 75.645,105.155 75.782,105.184 C75.879,105.205 75.972,105.226 76.064,105.247 C76.177,105.273 76.291,105.298 76.396,105.325 C76.511,105.354 76.617,105.383 76.722,105.413 C76.794,105.433 76.873,105.453 76.939,105.473 C77.106,105.523 77.257,105.573 77.382,105.62 C78.545,106.058 80.559,106.421 82.287,106.421 C89.176,106.421 89.679,98.106 95.381,97.544 C98.532,97.233 103.856,96.913 103.254,89.591 C102.772,83.727 107.11,83.146 107.11,79.308 C107.11,76.001 104.469,75.246 103.723,72.08 C103.424,70.81 103.977,68.254 103.977,66.897 C103.977,62.042 98.467,61.333 98.193,56.333 C98.083,54.324 99.157,52.965 99.157,50.87 C99.157,47.676 96.459,45.086 93.132,45.086 C91.37,45.086 88.77,45.067 87.188,44.845 C82.446,44.181 81.638,39.784 76.021,39.784 C75.711,39.784 75.409,39.805 75.114,39.838 C75.042,39.847 74.973,39.861 74.903,39.871 C74.673,39.903 74.447,39.94 74.226,39.99 C74.168,40.003 74.112,40.019 74.055,40.033 C73.817,40.09 73.583,40.156 73.354,40.231 C73.324,40.241 73.295,40.251 73.266,40.261 C73.005,40.349 72.75,40.444 72.5,40.55 L72.5,59.174 C80.192,59.174 86.428,65.41 86.428,73.103" id="Fill-170" fill="#E15C37"></path>
            <path d="M52.31,59.351 L49.652,64.378 M85.067,96.25 L82.41,101.277 M90.964,85.597 L94.036,90.382 M46.808,76.843 L52.495,76.828 M62.343,93.856 L65.415,98.642 M93.164,57.818 L91.835,63.348 M99.006,73.875 L93.804,76.173 M77.569,46.994 L81.318,51.271 M63.879,49.132 L63.688,54.816 M54.458,85.147 L54.266,90.832" id="Stroke-171" stroke="#FFFFFE" stroke-width="3.689" stroke-linecap="round"></path>
        </g>
    </g>
</svg>