<?xml version="1.0" encoding="UTF-8"?>
<svg width="145px" height="146px" viewBox="0 0 145 146" version="1.1" xmlns="http://www.w3.org/2000/svg" xmlns:xlink="http://www.w3.org/1999/xlink">
    <!-- Generator: Sketch 48.2 (47327) - http://www.bohemiancoding.com/sketch -->
    <title>Group 4</title>
    <desc>Created with Sketch.</desc>
    <defs></defs>
    <g id="icon-/-cafe-duplo" stroke="none" stroke-width="1" fill="none" fill-rule="evenodd">
        <g id="Group-4">
            <path d="M145,73.103 C145,113.143 112.541,145.603 72.5,145.603 C32.461,145.603 0,113.143 0,73.103 C0,33.062 32.461,0.602 72.5,0.602 C112.541,0.602 145,33.062 145,73.103" id="Fill-52" fill="#EA8A3B"></path>
            <path d="M145,73.103 C145,70.748 144.878,68.422 144.659,66.125 L43.353,33.55 L46.469,112.61 L112.211,133.75 C131.953,120.796 145,98.479 145,73.103" id="Fill-124" fill="#DB8137"></path>
            <path d="M96.572,107.606 C96.572,110.395 94.312,112.655 91.522,112.655 L46.92,112.655 C44.131,112.655 41.871,110.395 41.871,107.606 L38.505,38.599 C38.505,35.81 40.765,33.55 43.555,33.55 L94.889,33.55 C97.678,33.55 99.938,35.81 99.938,38.599 L96.572,107.606" id="Fill-125" fill="#FFFFFE"></path>
            <path d="M95.221,33.55 L69.554,33.55 L69.554,112.655 L91.854,112.655 C94.644,112.655 96.904,110.395 96.904,107.606 L100.271,38.599 C100.271,35.81 98.01,33.55 95.221,33.55" id="Fill-126" fill="#EDEDEA"></path>
            <path d="M96.15,48.261 L97.471,48.261 C107.618,48.261 115.845,54.488 115.845,64.636 C115.845,74.784 107.618,81.01 97.471,81.01 L96.15,81.01" id="Stroke-127" stroke="#EDEDEA" stroke-width="7"></path>
            <path d="M85.043,73.103 C85.043,81.84 77.959,88.924 69.222,88.924 C60.484,88.924 53.4,81.84 53.4,73.103 C53.4,64.365 60.484,57.281 69.222,57.281 C77.959,57.281 85.043,64.365 85.043,73.103" id="Fill-128" fill="#785A3D"></path>
            <path d="M69.222,57.281 L69.222,88.924 C77.959,88.924 85.043,81.84 85.043,73.103 C85.043,64.365 77.959,57.281 69.222,57.281" id="Fill-129" fill="#5E4429"></path>
        </g>
    </g>
</svg>