<?xml version="1.0" encoding="UTF-8"?>
<svg width="145px" height="146px" viewBox="0 0 145 146" version="1.1" xmlns="http://www.w3.org/2000/svg" xmlns:xlink="http://www.w3.org/1999/xlink">
    <!-- Generator: Sketch 48.2 (47327) - http://www.bohemiancoding.com/sketch -->
    <title>Group 9</title>
    <desc>Created with Sketch.</desc>
    <defs></defs>
    <g id="complement-/-cookie" stroke="none" stroke-width="1" fill="none" fill-rule="evenodd">
        <g id="Group-9">
            <path d="M145,73.103 C145,113.143 112.541,145.603 72.5,145.603 C32.46,145.603 0,113.143 0,73.103 C0,33.063 32.46,0.603 72.5,0.603 C112.541,0.603 145,33.063 145,73.103" id="Fill-58" fill="#F0A44D"></path>
            <path d="M145,73.112 C145,67.269 144.291,61.594 142.985,56.15 L87.073,36.937 L72.557,112.059 L119.584,128.22 C135.132,114.922 145,95.175 145,73.112" id="Fill-144" fill="#E39C49"></path>
            <path d="M111.445,73.103 C111.445,94.611 94.008,112.047 72.5,112.047 C50.992,112.047 33.555,94.611 33.555,73.103 C33.555,51.594 50.992,34.158 72.5,34.158 C94.008,34.158 111.445,51.594 111.445,73.103" id="Fill-151" fill="#B38F6C"></path>
            <path d="M72.5,34.158 L72.5,112.047 C94.008,112.047 111.445,94.611 111.445,73.103 C111.445,51.594 94.008,34.158 72.5,34.158" id="Fill-152" fill="#947356"></path>
            <path d="M56.771,51.773 C56.771,53.363 55.483,54.652 53.892,54.652 C52.303,54.652 51.014,53.363 51.014,51.773 C51.014,50.185 52.303,48.896 53.892,48.896 C55.483,48.896 56.771,50.185 56.771,51.773" id="Fill-153" fill="#2B1B0F"></path>
            <path d="M98.035,65.45 C98.035,67.04 96.747,68.329 95.156,68.329 C93.566,68.329 92.278,67.04 92.278,65.45 C92.278,63.861 93.566,62.573 95.156,62.573 C96.747,62.573 98.035,63.861 98.035,65.45" id="Fill-154" fill="#2B1B0F"></path>
            <path d="M83.384,64.541 C83.384,66.131 82.095,67.42 80.504,67.42 C78.915,67.42 77.626,66.131 77.626,64.541 C77.626,62.952 78.915,61.664 80.504,61.664 C82.095,61.664 83.384,62.952 83.384,64.541" id="Fill-155" fill="#2B1B0F"></path>
            <path d="M47.416,84.044 C47.416,86.016 45.818,87.613 43.845,87.613 C41.873,87.613 40.275,86.016 40.275,84.044 C40.275,82.072 41.873,80.475 43.845,80.475 C45.818,80.475 47.416,82.072 47.416,84.044" id="Fill-156" fill="#2B1B0F"></path>
            <path d="M62.14,70.818 C62.14,73.782 59.737,76.186 56.77,76.186 C53.806,76.186 51.403,73.782 51.403,70.818 C51.403,67.854 53.806,65.451 56.77,65.451 C59.737,65.451 62.14,67.854 62.14,70.818" id="Fill-157" fill="#2B1B0F"></path>
            <path d="M91.973,48.896 C91.973,51.86 89.569,54.264 86.602,54.264 C83.639,54.264 81.235,51.86 81.235,48.896 C81.235,45.933 83.639,43.529 86.602,43.529 C89.569,43.529 91.973,45.933 91.973,48.896" id="Fill-158" fill="#2B1B0F"></path>
            <path d="M64.533,93.033 C64.533,95.471 62.557,97.446 60.117,97.446 C57.68,97.446 55.704,95.471 55.704,93.033 C55.704,90.597 57.68,88.62 60.117,88.62 C62.557,88.62 64.533,90.597 64.533,93.033" id="Fill-159" fill="#2B1B0F"></path>
            <path d="M102.297,81.527 C102.297,83.498 100.699,85.097 98.726,85.097 C96.755,85.097 95.156,83.498 95.156,81.527 C95.156,79.556 96.755,77.957 98.726,77.957 C100.699,77.957 102.297,79.556 102.297,81.527" id="Fill-160" fill="#2B1B0F"></path>
            <path d="M88.812,97.446 C88.812,99.418 87.213,101.017 85.24,101.017 C83.269,101.017 81.67,99.418 81.67,97.446 C81.67,95.476 83.269,93.877 85.24,93.877 C87.213,93.877 88.812,95.476 88.812,97.446" id="Fill-161" fill="#2B1B0F"></path>
            <path d="M76.071,80.475 C76.071,82.445 74.472,84.044 72.499,84.044 C70.528,84.044 68.929,82.445 68.929,80.475 C68.929,78.503 70.528,76.905 72.499,76.905 C74.472,76.905 76.071,78.503 76.071,80.475" id="Fill-162" fill="#2B1B0F"></path>
            <path d="M70.856,43.616 C70.856,45.587 69.258,47.186 67.284,47.186 C65.313,47.186 63.715,45.587 63.715,43.616 C63.715,41.645 65.313,40.046 67.284,40.046 C69.258,40.046 70.856,41.645 70.856,43.616" id="Fill-163" fill="#2B1B0F"></path>
        </g>
    </g>
</svg>