<?xml version="1.0" encoding="UTF-8"?>
<svg width="145px" height="146px" viewBox="0 0 145 146" version="1.1" xmlns="http://www.w3.org/2000/svg" xmlns:xlink="http://www.w3.org/1999/xlink">
    <!-- Generator: Sketch 48.2 (47327) - http://www.bohemiancoding.com/sketch -->
    <title>Group 8</title>
    <desc>Created with Sketch.</desc>
    <defs></defs>
    <g id="complement-/-chantili" stroke="none" stroke-width="1" fill="none" fill-rule="evenodd">
        <g id="Group-8">
            <path d="M145,73.103 C145,113.143 112.541,145.603 72.5,145.603 C32.46,145.603 0,113.143 0,73.103 C0,33.063 32.46,0.603 72.5,0.603 C112.541,0.603 145,33.063 145,73.103" id="Fill-43" fill="#5E4429"></path>
            <path d="M145.001,73.101 C145.001,62.989 142.926,53.364 139.187,44.62 L68.584,23.972 L68.584,44.528 L59.383,122.119 L102.997,138.874 C127.796,127.356 145.001,102.243 145.001,73.101" id="Fill-50" fill="#503A23"></path>
            <polyline id="Fill-60" fill="#A2A5A5" points="76.417 52.01 68.584 52.01 68.584 23.972 76.417 31.844 76.417 52.01"></polyline>
            <path d="M93.25,113.233 C93.25,118.204 89.221,122.233 84.25,122.233 L60.75,122.233 C55.779,122.233 51.75,118.204 51.75,113.233 L51.75,61.233 L93.25,61.233 L93.25,113.233" id="Fill-61" fill="#EDEDEA"></path>
            <path d="M60.75,122.233 L72.5,122.233 L72.5,61.167 L51.75,61.233 L51.75,113.233 C51.75,118.204 55.779,122.233 60.75,122.233" id="Fill-62" fill="#FFFFFE"></path>
            <path d="M93.25,61.597 L51.75,61.597 L51.75,46.536 C51.75,45.428 52.649,44.528 53.758,44.528 L91.242,44.528 C92.351,44.528 93.25,45.428 93.25,46.536 L93.25,61.597" id="Fill-63" fill="#BBBDBB"></path>
            <path d="M91.242,44.528 L72.5,44.528 L72.5,61.584 L93.25,61.597 L93.25,46.536 C93.25,45.428 92.351,44.528 91.242,44.528" id="Fill-64" fill="#A2A5A5"></path>
        </g>
    </g>
</svg>