<?xml version="1.0" encoding="UTF-8"?>
<svg width="146px" height="146px" viewBox="0 0 146 146" version="1.1" xmlns="http://www.w3.org/2000/svg" xmlns:xlink="http://www.w3.org/1999/xlink">
    <!-- Generator: Sketch 48.2 (47327) - http://www.bohemiancoding.com/sketch -->
    <title>Group 6</title>
    <desc>Created with Sketch.</desc>
    <defs></defs>
    <g id="complement-/-cupcake" stroke="none" stroke-width="1" fill="none" fill-rule="evenodd">
        <g id="Group-6">
            <path d="M145,73.103 C145,113.143 112.541,145.603 72.5,145.603 C32.461,145.603 0,113.143 0,73.103 C0,33.062 32.461,0.603 72.5,0.603 C112.541,0.603 145,33.062 145,73.103" id="Fill-56" fill="#F0A44D"></path>
            <path d="M145.042,73.243 C145.042,68.847 144.629,64.55 143.88,60.37 L85.066,41.458 L49,108.696 L116.936,130.542 C134.029,117.279 145.042,96.553 145.042,73.243" id="Fill-130" fill="#E39C49"></path>
            <path d="M97.817,106.199 C97.817,107.528 96.74,108.606 95.41,108.606 L49.59,108.606 C48.26,108.606 47.183,107.528 47.183,106.199 L41.166,67.693 C41.166,66.363 42.244,65.286 43.573,65.286 L101.427,65.286 C102.756,65.286 103.834,66.363 103.834,67.693 L97.817,106.199" id="Fill-132" fill="#4A321C"></path>
            <path d="M101.427,65.286 L72.5,65.286 L72.5,108.606 L95.41,108.606 C96.74,108.606 97.817,107.528 97.817,106.199 L103.834,67.693 C103.834,66.363 102.756,65.286 101.427,65.286" id="Fill-133" fill="#2B1B0F"></path>
            <path d="M104.895,69.887 C103.743,62.833 102.771,39.705 72.994,39.705 C43.688,39.705 40.018,63.321 40.018,70.822 C40.018,71.31 36.27,70.468 36.27,74.707 C36.27,76.111 37.978,77.252 40.087,77.252 C41.169,77.252 41.872,77.119 42.563,76.64 C43.102,78.21 45.47,79.217 47.988,79.217 C50.375,79.217 52.391,78.162 53.049,76.716 C53.983,77.269 55.212,77.609 56.561,77.609 C58.103,77.609 59.961,77.195 60.928,76.494 C61.085,76.503 60.769,76.485 60.928,76.494 C61.068,77.816 62.714,78.858 64.73,78.858 C66.459,78.858 67.917,78.094 68.388,77.043 C69.047,77.807 70.279,78.324 71.695,78.324 C72.885,78.324 73.947,77.96 74.647,77.391 C75.343,78.545 77.032,79.36 79.012,79.36 C81.459,79.36 83.463,78.11 83.685,76.519 C83.737,76.515 83.79,76.512 83.847,76.509 C84.643,77.781 86.509,78.679 88.708,78.679 C91.466,78.679 93.728,77.273 93.972,75.477 C94.112,75.456 94.246,75.435 94.381,75.414 C95.207,77.498 98.044,79.036 101.432,79.036 C105.463,79.036 108.73,76.858 108.73,74.17 C108.73,72.319 107.178,70.709 104.895,69.887" id="Fill-134" fill="#FFFFFE"></path>
            <path d="M104.895,69.887 C103.743,62.833 102.771,39.705 72.994,39.705 C72.825,39.705 72.668,39.716 72.5,39.717 L72.5,78.263 C73.356,78.139 74.109,77.828 74.647,77.391 C75.343,78.545 77.032,79.36 79.012,79.36 C81.459,79.36 83.463,78.11 83.685,76.519 C83.737,76.515 83.628,76.522 83.685,76.519 C84.48,77.792 86.509,78.679 88.708,78.679 C91.466,78.679 94.137,77.21 94.381,75.414 C94.521,75.393 94.246,75.435 94.381,75.414 C95.207,77.498 98.044,79.036 101.432,79.036 C105.463,79.036 108.73,76.858 108.73,74.17 C108.73,72.319 107.178,70.709 104.895,69.887" id="Fill-135" fill="#EDEDEA"></path>
            <path d="M64.979,60.47 C64.979,61.924 63.802,63.103 62.348,63.103 C60.893,63.103 59.714,61.924 59.714,60.47 C59.714,59.017 60.893,57.838 62.348,57.838 C63.802,57.838 64.979,59.017 64.979,60.47" id="Fill-136" fill="#2B1B0F"></path>
            <path d="M74.155,48.963 C74.155,50.79 72.674,52.272 70.845,52.272 C69.018,52.272 67.536,50.79 67.536,48.963 C67.536,47.136 69.018,45.654 70.845,45.654 C72.674,45.654 74.155,47.136 74.155,48.963" id="Fill-137" fill="#2B1B0F"></path>
            <path d="M82.127,40.909 C82.127,42.736 80.646,44.218 78.818,44.218 C76.99,44.218 75.508,42.736 75.508,40.909 C75.508,39.081 76.99,37.599 78.818,37.599 C80.646,37.599 82.127,39.081 82.127,40.909" id="Fill-138" fill="#2B1B0F"></path>
            <path d="M93.449,49.824 C93.449,51.389 92.181,52.657 90.616,52.657 C89.052,52.657 87.781,51.389 87.781,49.824 C87.781,48.259 89.052,46.99 90.616,46.99 C92.181,46.99 93.449,48.259 93.449,49.824" id="Fill-139" fill="#2B1B0F"></path>
            <path d="M85.286,61.299 C85.286,63.044 83.871,64.458 82.127,64.458 C80.382,64.458 78.968,63.044 78.968,61.299 C78.968,59.555 80.382,58.142 82.127,58.142 C83.871,58.142 85.286,59.555 85.286,61.299" id="Fill-140" fill="#2B1B0F"></path>
            <path d="M96.506,59.532 C96.506,60.778 95.494,61.787 94.25,61.787 C93.005,61.787 91.995,60.778 91.995,59.532 C91.995,58.287 93.005,57.277 94.25,57.277 C95.494,57.277 96.506,58.287 96.506,59.532" id="Fill-141" fill="#2B1B0F"></path>
            <path d="M54.751,55.582 C54.751,57.409 53.271,58.891 51.441,58.891 C49.614,58.891 48.133,57.409 48.133,55.582 C48.133,53.755 49.614,52.272 51.441,52.272 C53.271,52.272 54.751,53.755 54.751,55.582" id="Fill-142" fill="#2B1B0F"></path>
            <path d="M60.466,43.767 C60.466,45.345 59.188,46.625 57.609,46.625 C56.03,46.625 54.751,45.345 54.751,43.767 C54.751,42.188 56.03,40.909 57.609,40.909 C59.188,40.909 60.466,42.188 60.466,43.767" id="Fill-143" fill="#2B1B0F"></path>
        </g>
    </g>
</svg>